<svg id="Layer_1" data-name="Layer 1" xmlns="http://www.w3.org/2000/svg" width="68.0246" height="45.3761" viewBox="0 0 68.0246 45.3761"><defs><style>.cls-1{fill:#fff;}</style></defs><path class="cls-1" d="M5.7919,11.4166A3.8264,3.8264,0,0,1,2.27,9.0986a3.9539,3.9539,0,0,1,0-3A3.8467,3.8467,0,0,1,8.5187,4.8941a3.7858,3.7858,0,0,1,.0549,5.3536q-.0272.0277-.0549.0549A3.7563,3.7563,0,0,1,5.7919,11.4166Zm-2.9542,25.27v-22.27H8.7909v22.27Z"/><path class="cls-1" d="M14.2442,36.6864V4.1446H20.198V36.6864Z"/><path class="cls-1" d="M46.15,31.3235a12.4733,12.4733,0,0,1-4.1582,4.4083,11.5633,11.5633,0,0,1-6.3857,1.6819,12.2624,12.2624,0,0,1-4.7043-.8863,11.2221,11.2221,0,0,1-6.2267-6.2267,12.3831,12.3831,0,0,1-.8865-4.7495,12.1851,12.1851,0,0,1,.8636-4.5675,11.5258,11.5258,0,0,1,6.0678-6.34,11.1846,11.1846,0,0,1,4.6584-.9545,12.1311,12.1311,0,0,1,4.7723.8863,9.7426,9.7426,0,0,1,3.5,2.4543,10.5733,10.5733,0,0,1,2.1359,3.704,14.3089,14.3089,0,0,1,.7274,4.6357v.5455a3.0154,3.0154,0,0,0-.0454.5,2.5263,2.5263,0,0,0-.0457.5H29.6519a6.2488,6.2488,0,0,0,.75,2.3406,5.6572,5.6572,0,0,0,1.4089,1.6362,5.4666,5.4666,0,0,0,1.8409.9545,7.1629,7.1629,0,0,0,2.0452.2954,5.7982,5.7982,0,0,0,3.3859-.9316,6.8092,6.8092,0,0,0,2.1134-2.3407Zm-5.4082-8.6354a3.86,3.86,0,0,0-.3862-1.3181,4.66,4.66,0,0,0-1-1.3636A5.244,5.244,0,0,0,37.72,18.9612a6.0468,6.0468,0,0,0-2.3406-.4091,5.4531,5.4531,0,0,0-3.3631,1.0908,5.7535,5.7535,0,0,0-2.0452,3.0452Z"/><path class="cls-1" d="M52.1042,19.5065H48.1953v-5.09h3.9089V7.5988H58.058v6.8174h5.454v5.09H58.058v8.8987a6.4386,6.4386,0,0,0,.159,1.4759,2.3923,2.3923,0,0,0,.6137,1.1476,2.2505,2.2505,0,0,0,1.8177.7492,3.8182,3.8182,0,0,0,1.2274-.159,3.8623,3.8623,0,0,0,.8635-.4319l1.6815,5.2268a9.8525,9.8525,0,0,1-2.25.75,13.1443,13.1443,0,0,1-2.6586.25A8.1219,8.1219,0,0,1,56.49,36.88a6.4247,6.4247,0,0,1-2.25-1.4615,7.9235,7.9235,0,0,1-2.136-5.938Z"/></svg>