<svg width="69" height="46" viewBox="0 0 69 46" fill="none" xmlns="http://www.w3.org/2000/svg">
<path d="M5.79184 11.4166C5.04229 11.4176 4.30894 11.1985 3.68283 10.7864C3.05671 10.3743 2.56542 9.78742 2.26994 9.09857C1.87584 8.1374 1.87584 7.05974 2.26994 6.09857C2.51799 5.52208 2.90331 5.01504 3.39231 4.62167C3.8813 4.22829 4.45912 3.96054 5.07536 3.84175C5.6916 3.72296 6.32754 3.75676 6.92772 3.94018C7.5279 4.1236 8.07409 4.45109 8.51864 4.89407C9.23585 5.59672 9.64455 6.55551 9.65484 7.5595C9.66514 8.56349 9.27619 9.53045 8.57354 10.2477C8.55541 10.2661 8.53711 10.2844 8.51864 10.3026C8.16264 10.6624 7.73758 10.9466 7.26899 11.138C6.80041 11.3294 6.29797 11.4242 5.79184 11.4166ZM2.83764 36.6866V14.4166H8.79084V36.6866H2.83764Z" fill="#09090B"/>
<path d="M14.2441 36.6863V4.14453H20.1979V36.6863H14.2441Z" fill="#09090B"/>
<path d="M46.1501 31.3235C45.1475 33.1124 43.7193 34.6265 41.9919 35.7318C40.0721 36.9012 37.853 37.4857 35.6062 37.4137C33.9951 37.4302 32.3966 37.129 30.9019 36.5274C29.4978 35.9629 28.2224 35.1204 27.1523 34.0503C26.0822 32.9802 25.2396 31.7048 24.6752 30.3007C24.0707 28.7911 23.7695 27.1772 23.7887 25.5512C23.7808 23.9874 24.074 22.4367 24.6523 20.9837C25.7598 18.1529 27.9406 15.8742 30.7201 14.6437C32.1865 13.9953 33.7752 13.6698 35.3785 13.6892C37.0127 13.6601 38.636 13.9616 40.1508 14.5755C41.4848 15.1244 42.6802 15.9627 43.6508 17.0298C44.6076 18.1061 45.3344 19.3665 45.7867 20.7338C46.2826 22.2285 46.5284 23.7947 46.5141 25.3695V25.915C46.4851 26.0801 46.4699 26.2473 46.4687 26.415C46.4369 26.5797 46.4216 26.7472 46.423 26.915H29.652C29.7446 27.7371 29.9995 28.5327 30.402 29.2556C30.7622 29.8864 31.2406 30.4419 31.8109 30.8918C32.358 31.3245 32.9829 31.6485 33.6518 31.8463C34.3157 32.0431 35.0046 32.1426 35.697 32.1417C36.8948 32.1886 38.0777 31.8631 39.0829 31.2101C39.9608 30.606 40.6847 29.8042 41.1963 28.8694L46.1501 31.3235ZM40.7419 22.6881C40.693 22.2292 40.5622 21.7827 40.3557 21.37C40.1083 20.8583 39.7694 20.3961 39.3557 20.0064C38.8803 19.5592 38.3256 19.2048 37.7201 18.9612C36.9746 18.6714 36.1791 18.5323 35.3795 18.5521C34.1684 18.5321 32.9852 18.9159 32.0164 19.6429C31.0207 20.4076 30.3024 21.4771 29.9712 22.6881H40.7419Z" fill="#09090B"/>
<path d="M52.1042 19.5066H48.1953V14.4166H52.1042V7.59888H58.058V14.4163H63.512V19.5063H58.058V28.405C58.0539 28.9014 58.1073 29.3967 58.217 29.8809C58.3116 30.3128 58.524 30.71 58.8307 31.0285C59.0573 31.2827 59.3386 31.4823 59.6534 31.6121C59.9683 31.7418 60.3085 31.7985 60.6484 31.7777C61.0635 31.7918 61.478 31.7381 61.8758 31.6187C62.1806 31.5114 62.4707 31.3663 62.7393 31.1868L64.4208 36.4136C63.7037 36.7533 62.9483 37.0051 62.1708 37.1636C61.2954 37.3369 60.4046 37.4207 59.5122 37.4136C58.4801 37.4294 57.4544 37.2484 56.49 36.8801C55.6455 36.5567 54.8788 36.0587 54.24 35.4186C53.4962 34.6279 52.9228 33.6929 52.5554 32.6714C52.1879 31.6499 52.0343 30.5639 52.104 29.4806L52.1042 19.5066Z" fill="#09090B"/>
</svg>
